<?xml version="1.0" encoding="iso-8859-1"?>
<!-- Generator: Adobe Illustrator 19.0.0, SVG Export Plug-In . SVG Version: 6.00 Build 0)  -->
<svg version="1.1" id="Layer_1" xmlns="http://www.w3.org/2000/svg" xmlns:xlink="http://www.w3.org/1999/xlink" x="0px" y="0px"
	 viewBox="0 0 508 508" style="enable-background:new 0 0 508 508;" xml:space="preserve">
<path style="fill:#40596B;" d="M439.9,247.6C439.9,399.8,356.7,508,254,508S68.1,399.8,68.1,247.6C68.1,143,151.3,58.2,254,58.2
	S439.9,143,439.9,247.6z"/>
<path style="fill:#FFD15C;" d="M321.3,220.5c6.9,8.6,12,32.6,12,32.6s-30.9-22.4-82.6-32.6c-37.4-7.4-82.6-65.1-82.6-65.1
	C158.9,260.6,88,281.3,69.8,285C82.3,417.2,159.9,508,254,508c98.4,0,178.9-99.3,185.4-241.5C406.2,236.3,321.3,220.5,321.3,220.5z"
	/>
<g>
	<path style="fill:#334A5E;" d="M70.6,216.4H33.9C15.2,216.4,0,231.8,0,250.9v51.2c0,19.1,15.2,34.5,33.9,34.5h44.5
		c-6.7-27.4-10.3-57.2-10.3-89C68.1,236.9,68.9,226.5,70.6,216.4z"/>
	<path style="fill:#334A5E;" d="M474.1,216.4h-36.7c1.6,10.1,2.5,20.5,2.5,31.2c0,31.8-3.6,61.6-10.3,89h44.5
		c18.7,0,33.9-15.4,33.9-34.5v-51.2C508,231.8,492.9,216.4,474.1,216.4z"/>
</g>
<path style="fill:#F2F2F2;" d="M474.1,336.6h-16.9v47.6h-158v34.5H491V332C486.1,334.9,480.3,336.6,474.1,336.6z"/>
<path style="fill:#40596B;" d="M304.2,431h-74c-1.5,0-2.7-1.2-2.7-2.7v-53.6c0-1.5,1.2-2.7,2.7-2.7h74c1.5,0,2.7,1.2,2.7,2.7v53.6
	C306.9,429.8,305.7,431,304.2,431z"/>
<path style="fill:#F2F2F2;" d="M267.6,0H235C115.1,0,17.6,99.1,17,221c5-2.9,10.7-4.6,16.9-4.6H51c3-100.8,84.4-181.9,184.1-181.9
	h32.5c99.7,0,181.1,81.1,184.1,181.9h22.5c4,0,7.8,0.7,11.4,2C483.6,97.7,386.6,0,267.6,0z"/>
<g>
</g>
<g>
</g>
<g>
</g>
<g>
</g>
<g>
</g>
<g>
</g>
<g>
</g>
<g>
</g>
<g>
</g>
<g>
</g>
<g>
</g>
<g>
</g>
<g>
</g>
<g>
</g>
<g>
</g>
</svg>
